<svg width="80" height="103" viewBox="0 0 80 103" fill="none" xmlns="http://www.w3.org/2000/svg">
<path d="M55.2228 2.57732C56.0641 3.62087 56.4929 5.02928 57.3471 7.84264L76.0705 69.3456C69.0381 65.6957 61.4898 63.1403 53.6865 61.7676L41.4976 20.5736C41.4013 20.2443 41.2009 19.9551 40.9262 19.7495C40.6516 19.5439 40.3177 19.433 39.9746 19.4334C39.6315 19.4337 39.2979 19.5455 39.0237 19.7517C38.7495 19.9579 38.5497 20.2476 38.4542 20.5771L26.4114 61.7468C18.574 63.1138 10.9921 65.6732 3.92969 69.3361L22.7413 7.82967C23.6024 5.01977 24.0312 3.61396 24.8716 2.57041C25.6144 1.65183 26.5796 0.938195 27.6755 0.497135C28.9144 -1.546e-07 30.3868 0 33.3255 0H46.7637C49.7051 0 51.1774 0 52.4207 0.500594C53.5174 0.941572 54.4816 1.65663 55.2228 2.57732ZM57.4621 72.2714C54.3755 74.9118 48.2145 76.7119 41.1189 76.7119C32.4125 76.7119 25.1111 73.9997 23.1753 70.352C22.4836 72.4426 22.328 74.834 22.328 76.3643C22.328 76.3643 21.8724 83.8646 27.0901 89.0823C27.0901 88.4384 27.217 87.8007 27.4635 87.2058C27.7099 86.6109 28.0711 86.0704 28.5265 85.6151C28.9819 85.1598 29.5225 84.7986 30.1175 84.5523C30.7124 84.3059 31.3501 84.1792 31.9941 84.1793C36.6369 84.1793 36.6343 88.2281 36.6308 91.5179V91.8084C36.6308 96.7996 39.6802 101.076 44.017 102.879C43.3486 101.506 43.002 99.9988 43.0037 98.4717C43.0037 93.7096 45.7963 91.9398 49.0454 89.8795C51.6296 88.242 54.5 86.4212 56.4756 82.7709C57.5419 80.804 58.0991 78.6016 58.0967 76.3643C58.0979 74.9751 57.8839 73.595 57.4621 72.2714Z" fill="#F2F7F1"/>
</svg>
