<svg width="80" height="91" viewBox="0 0 80 91" fill="none" xmlns="http://www.w3.org/2000/svg">
<path d="M0 0L7.28096 81.74L39.9515 90.8494L72.7133 81.7067L80 0H0ZM64.874 18.727L62.4504 45.9573L62.4576 46.1043L62.4475 46.4424V46.4395L60.7256 65.4794L60.5358 67.1709L40 72.8508L39.9841 72.8653L19.4837 67.1535L18.0956 51.412H28.1484L28.8617 59.4164L40.0029 62.4359L40 62.4417V62.4403L51.1825 59.378L52.3642 46.3432H28.9877L28.7871 44.1398L28.3302 38.9776L28.0905 36.2056H53.2527L54.168 26.0681H15.8436L15.643 23.866L15.1868 18.7024L14.9464 15.9305H65.1137L64.874 18.727Z" fill="#F2F7F1"/>
</svg>
