<svg width="80" height="80" viewBox="0 0 80 80" fill="none" xmlns="http://www.w3.org/2000/svg">
<g clip-path="url(#clip0_633_2410)">
<path d="M41.2202 80H38.8488C38.7378 79.9594 38.6284 79.95 38.5174 79.95C37.2512 79.889 35.9944 79.789 34.7485 79.6187C32.4178 79.317 30.1261 78.8044 27.8954 78.0918C24.0672 76.8665 20.4999 75.1083 17.1938 72.8172C14.1283 70.6871 11.4162 68.1756 9.05417 65.2828C6.2701 61.8867 4.10038 58.1391 2.56219 54.021C1.18501 50.3639 0.361198 46.5772 0.109523 42.6685C0.100143 42.4576 0.0688793 42.2466 -0.00146484 42.0356V37.9066C0.0688793 37.7253 0.0985801 37.5346 0.109523 37.344C0.159545 36.4094 0.25959 35.4748 0.38152 34.5512C0.984916 30.0908 2.31051 25.8602 4.35049 21.8516C5.75737 19.0885 7.46595 16.5176 9.47467 14.1452C11.4646 11.7947 13.6953 9.69427 16.1667 7.85638C20.1967 4.86198 24.6283 2.70214 29.4712 1.37686C31.8222 0.734533 34.2248 0.312567 36.6556 0.110961C37.0871 0.0703276 37.5404 0.101584 37.9718 0H42.0315C42.3426 0.0906445 42.6646 0.0406337 42.9757 0.0703276C44.5842 0.210983 46.1818 0.412589 47.7684 0.723593C52.7629 1.70818 57.3946 3.57733 61.6762 6.33886C65.0027 8.47838 67.9369 11.0602 70.499 14.064C72.5593 16.4754 74.3069 19.0979 75.7341 21.9297C77.4224 25.2757 78.6276 28.7812 79.3123 32.4679C79.6734 34.4168 79.9454 36.3859 79.9548 38.3754C79.9548 38.5067 79.9845 38.6474 79.9954 38.7771V41.1479C79.9548 41.2979 79.9548 41.4589 79.9454 41.6199C79.9454 42.0012 79.9454 42.3841 79.9157 42.7654C79.7344 45.1972 79.3529 47.5977 78.7495 49.9686C77.5943 54.4195 75.7341 58.5485 73.1517 62.3556C71.2321 65.189 68.992 67.7411 66.419 70.001C63.8569 72.2515 61.0525 74.1503 58.0074 75.6866C54.4996 77.4541 50.812 78.681 46.9431 79.353C45.4565 79.614 43.9589 79.7843 42.452 79.875C42.0549 79.9203 41.6329 79.9109 41.2202 80ZM25.052 60.9115C25.7148 60.9318 26.4589 60.8506 27.2029 60.6912C29.4039 60.2082 31.2735 59.2049 32.7101 57.4264C33.5839 56.3418 34.3186 55.1665 34.9517 53.9303C35.6958 52.4738 36.318 50.9563 36.8604 49.42C37.5232 47.5618 38.086 45.6629 38.519 43.7438C38.7597 42.6685 38.4893 41.995 37.3028 41.6246C35.7959 41.1526 34.278 40.7306 32.7304 40.3884C30.1683 39.8257 27.5859 39.4647 24.9519 39.5538C24.2078 39.5835 23.4653 39.6648 22.7306 39.7945C20.6 40.1664 18.7914 41.151 17.3141 42.7076C14.7911 45.3597 13.7875 48.5245 14.4097 52.1315C15.3038 57.2857 19.8668 60.9522 25.052 60.9115ZM29.3023 23.9614C29.2726 24.7147 29.4133 25.5383 29.6447 26.3619C30.0871 27.9294 30.8202 29.3657 31.6846 30.7222C33.6543 33.8073 36.1366 36.4485 38.83 38.9005C39.0505 39.1022 39.3131 39.2725 39.5944 39.4022C39.8758 39.5429 40.1572 39.5429 40.448 39.4225C40.7293 39.3022 40.981 39.1318 41.192 38.9099C42.1268 37.9863 43.0507 37.0611 43.9355 36.1062C45.1813 34.7497 46.3678 33.354 47.4433 31.8568C48.4187 30.5003 49.2926 29.0734 49.935 27.5262C50.5775 25.9884 50.8901 24.4021 50.6791 22.7346C50.3274 19.9824 49.1519 17.6507 47.0509 15.8222C44.567 13.6639 41.6735 12.7996 38.4174 13.281C33.1212 14.0655 29.282 18.7275 29.3023 23.9614ZM55.4094 60.8521C55.6704 60.8428 56.1425 60.8521 56.6146 60.7818C59.7895 60.3098 62.3015 58.772 64.0711 56.0808C65.4576 53.9616 66.0204 51.6095 65.7593 49.0887C65.5186 46.7272 64.5635 44.658 62.9456 42.9202C61.5387 41.4136 59.8598 40.368 57.8308 39.9258C56.7146 39.6851 55.5798 39.5835 54.4449 39.5648C53.099 39.5444 51.7624 39.6648 50.4353 39.8461C47.7825 40.218 45.1892 40.851 42.638 41.6543C42.377 41.734 42.1362 41.8559 41.9252 42.0262C41.6532 42.2466 41.5031 42.5185 41.5031 42.8702C41.5031 43.1718 41.5328 43.4734 41.6032 43.775C41.7642 44.3783 41.9049 44.98 42.0659 45.5739C42.81 48.2869 43.7135 50.9391 44.95 53.4709C45.6628 54.9274 46.4882 56.3043 47.5433 57.5405C48.3468 58.4751 49.2816 59.2377 50.3977 59.7707C51.9234 60.5005 53.5101 60.8928 55.4094 60.8521Z" fill="#F2F7F1"/>
</g>
<defs>
<clipPath id="clip0_633_2410">
<rect width="80" height="80" fill="white"/>
</clipPath>
</defs>
</svg>
