<svg width="80" height="80" viewBox="0 0 80 80" fill="none" xmlns="http://www.w3.org/2000/svg">
<path fill-rule="evenodd" clip-rule="evenodd" d="M39.9998 3.18945C19.1579 3.18945 2.25732 20.0863 2.25732 40.932C2.25732 57.6082 13.0717 71.7551 28.0679 76.7463C29.9536 77.0963 30.6461 75.9276 30.6461 74.9307C30.6461 74.0307 30.6111 71.0576 30.5948 67.9038C20.0948 70.187 17.8792 63.4507 17.8792 63.4507C16.1623 59.0882 13.6886 57.9282 13.6886 57.9282C10.2636 55.5857 13.9467 55.6345 13.9467 55.6345C17.7361 55.9001 19.7323 59.5238 19.7323 59.5238C23.0986 65.2926 28.5617 63.6251 30.7154 62.6613C31.0542 60.222 32.0323 58.5563 33.1117 57.6138C24.7286 56.6607 15.9154 53.4238 15.9154 38.962C15.9154 34.8413 17.3904 31.4745 19.8048 28.8307C19.4123 27.8807 18.1204 24.042 20.1698 18.8432C20.1698 18.8432 23.3386 17.8288 30.5511 22.712C33.5623 21.8751 36.7917 21.4545 39.9998 21.4401C43.2061 21.4545 46.4373 21.8738 49.4542 22.7107C56.6579 17.8276 59.823 18.842 59.823 18.842C61.8773 24.0401 60.5854 27.8795 60.1936 28.8295C62.6136 31.4732 64.078 34.8401 64.078 38.9607C64.078 53.457 55.2486 56.6482 46.8442 57.5832C48.1986 58.7545 49.4048 61.052 49.4048 64.5726C49.4048 69.6226 49.3611 73.687 49.3611 74.9301C49.3611 75.9345 50.0411 77.1113 51.9536 76.7407C66.9411 71.7445 77.7429 57.602 77.7429 40.932C77.7423 20.0876 60.8436 3.18945 39.9998 3.18945Z" fill="#F2F7F1"/>
<path d="M16.5525 57.3789C16.4694 57.5664 16.1744 57.6226 15.9056 57.4945C15.6306 57.372 15.4775 57.1164 15.5662 56.9283C15.6475 56.7345 15.9431 56.6814 16.2162 56.8108C16.4912 56.9339 16.6475 57.192 16.5519 57.3795L16.5525 57.3789ZM18.0812 59.0845C17.9019 59.2514 17.55 59.1739 17.3112 58.9095C17.0637 58.647 17.0175 58.2951 17.2006 58.1258C17.3869 57.9595 17.7281 58.0383 17.9756 58.3008C18.2219 58.567 18.2706 58.9158 18.0819 59.0851L18.0812 59.0845ZM19.57 61.2576C19.3387 61.4189 18.96 61.2683 18.7262 60.9326C18.495 60.5964 18.495 60.1933 18.7325 60.0326C18.9656 59.8714 19.3387 60.017 19.5762 60.3495C19.8062 60.6901 19.8062 61.0939 19.57 61.2576ZM21.6081 63.3583C21.4019 63.5864 20.9606 63.5251 20.6381 63.2145C20.3087 62.9101 20.2169 62.477 20.4237 62.2495C20.6337 62.0208 21.0769 62.0845 21.4012 62.3933C21.7306 62.697 21.83 63.1308 21.6094 63.3576L21.6081 63.3583ZM24.4206 64.5776C24.3287 64.8733 23.905 65.0076 23.4769 64.8814C23.05 64.752 22.7706 64.4064 22.8581 64.1076C22.9456 63.8095 23.3725 63.6701 23.8031 63.8045C24.23 63.9333 24.5094 64.277 24.4206 64.5776ZM27.51 64.8033C27.5206 65.1145 27.1581 65.372 26.71 65.3783C26.2581 65.3889 25.8925 65.1364 25.8881 64.8301C25.8881 64.5158 26.2431 64.2614 26.6944 64.2526C27.1425 64.2445 27.5106 64.4945 27.5106 64.8026L27.51 64.8033ZM30.3837 64.3145C30.4375 64.6176 30.1256 64.9295 29.68 65.0126C29.2425 65.0939 28.8362 64.9051 28.78 64.6045C28.7262 64.2933 29.0437 63.9814 29.4812 63.9008C29.9275 63.8239 30.3275 64.0064 30.3837 64.3145Z" fill="#181616"/>
</svg>
