<svg width="80" height="80" viewBox="0 0 80 80" fill="none" xmlns="http://www.w3.org/2000/svg">
<path d="M80 80.001H0V0H80V80.001ZM35.9766 56.1143C35.9766 60.2284 36.1896 64.0002 35.5205 65.1562C34.4257 67.4298 31.5887 67.148 30.2959 66.707C28.9802 66.0603 28.3113 65.1406 27.5361 63.8408C27.3233 63.4676 27.1631 63.1786 27.1094 63.1562L21.0254 66.8818C22.0371 68.9582 23.5276 70.7609 25.4365 71.9316C28.2881 73.643 32.1206 74.1673 36.1289 73.2471C38.7376 72.4872 40.9885 70.9134 42.167 68.5176C43.8708 65.3765 43.5056 61.5742 43.4902 57.3691C43.5286 50.5089 43.4902 43.6496 43.4902 36.7676H36.0078L35.9766 56.1143ZM60.1152 36.2969L57.7578 36.6016C55.4994 37.1723 53.3471 38.3579 52.085 39.9473C48.2978 44.2444 49.3779 51.7653 53.9863 54.8604C58.5263 58.2677 65.196 59.0432 66.0479 62.2295C66.8763 66.13 63.1801 67.3929 59.5068 66.9443C56.7999 66.3813 55.2947 65.0048 53.667 62.5029C50.671 64.2367 50.6702 64.2373 47.5898 66.0088C48.3203 67.6057 49.0881 68.3284 50.3125 69.7119C56.1076 75.59 70.6098 75.3013 73.2109 66.4043C73.3164 66.0988 74.0171 64.061 73.4541 60.9199C72.868 57.2704 70.4877 54.2051 63.4385 51.3467C60.9896 50.2213 58.259 49.4153 57.4453 47.5596C57.1564 46.4795 57.118 45.8706 57.3008 45.2168C57.8256 43.0952 60.3589 42.4336 62.3662 43.042C63.659 43.4753 64.882 44.4723 65.6201 46.0615C69.0724 43.8261 69.066 43.84 71.4766 42.3037C70.5941 40.9357 70.1226 40.3041 69.5449 39.7188C67.4686 37.3998 64.6395 36.2056 60.1152 36.2969Z" fill="#F2F7F1"/>
</svg>
