<svg width="130" height="80" viewBox="0 0 130 80" fill="none" xmlns="http://www.w3.org/2000/svg">
<g clip-path="url(#clip0_633_2400)">
<path d="M87.1646 -0.161279C87.0397 -0.162311 86.9167 -0.130869 86.8075 -0.0700351C86.694 -0.00392007 86.5993 0.0902755 86.5326 0.203512C86.4659 0.316748 86.4294 0.445225 86.4267 0.576613V19.8024C86.4245 19.8971 86.399 19.9898 86.3522 20.0722C86.3055 20.1545 86.239 20.2241 86.1589 20.2745C86.0777 20.318 85.9871 20.3408 85.895 20.3408C85.803 20.3408 85.7124 20.318 85.6312 20.2745L82.5173 18.4738C82.2888 18.3426 82.0298 18.2736 81.7663 18.2736C81.5027 18.2736 81.2438 18.3426 81.0152 18.4738L68.5535 25.7202C68.3228 25.8501 68.1305 26.0387 67.996 26.2668C67.8616 26.4949 67.7897 26.7545 67.7878 27.0192V41.4817C67.7878 42.0139 68.0833 42.5187 68.5535 42.7848L81.0152 50.0312C81.2436 50.162 81.5021 50.2308 81.7653 50.2308C82.0284 50.2308 82.287 50.162 82.5153 50.0312L94.977 42.7848C95.4473 42.5187 95.7427 42.0137 95.7427 41.4817V5.42704C95.7427 4.8654 95.4473 4.35961 94.977 4.09555L87.5426 -0.0725747C87.4252 -0.131946 87.2955 -0.163183 87.1638 -0.163818L87.1646 -0.161279ZM13.6435 17.8864C13.4099 17.8864 13.1763 17.9749 12.9711 18.0907L0.509379 25.3088C0.275063 25.4423 0.0805869 25.6358 -0.0540022 25.8695C-0.188591 26.1032 -0.258424 26.3686 -0.256301 26.6382L-0.226543 46.0367C-0.226543 46.3038 -0.0813085 46.5705 0.154317 46.6893C0.263422 46.7616 0.391401 46.8001 0.522277 46.8001C0.653154 46.8001 0.781132 46.7616 0.890238 46.6893L8.29922 42.4308C8.52951 42.3002 8.72123 42.1111 8.85498 41.8827C8.98874 41.6542 9.05979 41.3945 9.06094 41.1298V32.0511C9.06094 31.5189 9.35537 31.0141 9.82662 30.748L12.971 28.9148C13.2007 28.7747 13.4657 28.7031 13.7347 28.7086C13.9988 28.7086 14.2645 28.7666 14.4707 28.9148L17.615 30.748C18.0853 31.0141 18.3807 31.5191 18.3807 32.0511V41.1298C18.3807 41.6599 18.6732 42.1667 19.1424 42.4308L26.4915 46.6893C26.6058 46.7615 26.7382 46.7998 26.8734 46.7998C27.0086 46.7998 27.141 46.7615 27.2553 46.6893C27.3722 46.6254 27.4696 46.531 27.5371 46.416C27.6045 46.3011 27.6395 46.1699 27.6381 46.0367V26.6382C27.6381 26.106 27.3437 25.6023 26.8725 25.3352L14.4412 18.0907C14.2321 17.9786 14.0029 17.9091 13.7667 17.8864H13.6435ZM115.917 18.0966V18.0986L115.915 18.1006C115.658 18.1006 115.403 18.1669 115.167 18.301L102.705 25.5434C102.235 25.8115 101.944 26.3134 101.944 26.8464V41.3089C101.944 41.8411 102.235 42.3449 102.705 42.6099L115.076 49.7071C115.299 49.8378 115.552 49.9067 115.811 49.9067C116.069 49.9067 116.323 49.8378 116.545 49.7071L124.042 45.5096C124.158 45.4454 124.255 45.3508 124.322 45.2359C124.389 45.121 124.424 44.99 124.423 44.8569C124.424 44.7242 124.389 44.5936 124.322 44.4791C124.255 44.3645 124.158 44.2703 124.042 44.2063L111.519 36.9598C111.404 36.8925 111.309 36.7966 111.242 36.6816C111.176 36.5665 111.14 36.4362 111.138 36.3032V31.7786C111.137 31.6465 111.172 31.5166 111.239 31.4027C111.306 31.2888 111.403 31.1953 111.519 31.132L115.434 28.8844C115.549 28.8123 115.681 28.774 115.816 28.774C115.951 28.774 116.084 28.8123 116.198 28.8844L120.102 31.132C120.216 31.1983 120.31 31.2926 120.377 31.4057C120.444 31.5188 120.481 31.6472 120.485 31.7786V35.3272C120.485 35.5943 120.631 35.86 120.866 35.9778C120.98 36.0504 121.113 36.0889 121.249 36.0889C121.384 36.0889 121.517 36.0504 121.632 35.9778L129.036 31.632C129.264 31.5004 129.452 31.3108 129.582 31.0825C129.712 30.8543 129.779 30.5956 129.776 30.333V26.8138C129.776 26.2816 129.478 25.7779 129.036 25.5108L116.666 18.2998C116.438 18.1677 116.178 18.0973 115.914 18.0955H115.912L115.917 18.0966ZM47.6771 18.3347C47.5033 18.3642 47.3326 18.4215 47.1753 18.5132L35.1198 25.5139L48.4753 50.153C48.546 50.1254 48.6168 50.0925 48.6836 50.0538L61.1352 42.8215C61.313 42.7179 61.4639 42.5808 61.5835 42.4209L47.6796 18.3302L47.6771 18.3347ZM48.9802 18.6897L57.2342 32.9999L61.1494 25.7575C61.1419 25.7529 61.1352 25.748 61.1276 25.7436L48.9807 18.6941L48.9802 18.6897ZM34.3349 26.0713C34.107 26.3409 33.9738 26.6856 33.9738 27.0492V41.5117C33.9738 41.6906 34.0081 41.8623 34.067 42.0255L38.6628 34.0549L34.3342 26.067L34.3349 26.0713ZM61.7974 26.5612L57.7928 33.9621L61.8807 41.0481V27.0528C61.8807 26.8834 61.8504 26.7205 61.7973 26.5648L61.7974 26.5612ZM81.795 28.9002C81.861 28.9002 81.9266 28.9154 81.9875 28.9458L86.246 31.4311C86.3638 31.49 86.4245 31.6356 86.4245 31.7545V36.7239C86.4245 36.8722 86.3628 36.9923 86.246 37.0512L81.9855 39.5344C81.9258 39.5635 81.8603 39.5785 81.794 39.5785C81.7277 39.5785 81.6622 39.5635 81.6026 39.5344L77.342 37.0533C77.2242 36.9944 77.1635 36.8448 77.1635 36.7259V31.7565C77.1635 31.6082 77.2252 31.4911 77.342 31.4312L81.6026 28.9459C81.6623 28.916 81.7282 28.9003 81.795 28.9002ZM115.869 30.9112C115.817 30.9115 115.766 30.9274 115.722 30.9568L113.34 32.3472C113.295 32.3748 113.258 32.4137 113.233 32.46C113.207 32.5062 113.194 32.5583 113.195 32.611V35.3938C113.195 35.5117 113.251 35.6007 113.34 35.6596L115.722 37.05C115.766 37.0788 115.817 37.0942 115.869 37.0942C115.922 37.0942 115.973 37.0788 116.016 37.05L118.397 35.6596C118.442 35.6314 118.479 35.5922 118.505 35.5457C118.53 35.4992 118.544 35.447 118.543 35.3938V32.6131C118.544 32.5602 118.53 32.5081 118.505 32.4619C118.479 32.4157 118.442 32.3769 118.397 32.3492L116.016 30.9568C115.973 30.9281 115.921 30.9129 115.869 30.9131L115.869 30.9112ZM39.1896 35.0407L34.7066 42.8143C34.7115 42.8172 34.7155 42.8213 34.7205 42.8242L47.1619 50.0565C47.2313 50.0966 47.3046 50.1295 47.3781 50.1576L39.1861 35.0451L39.1896 35.0407ZM63.981 47.5532C63.5473 47.5532 63.1148 47.6555 62.747 47.8626L51.0165 54.6978C50.6401 54.9183 50.3281 55.2336 50.1116 55.6123C49.8951 55.991 49.7816 56.4198 49.7825 56.856V70.4857C49.7825 71.3734 50.2526 72.2011 51.0165 72.6459L54.105 74.4192C55.6031 75.1586 56.1312 75.1532 56.8066 75.1532C59.0105 75.1532 60.276 73.7953 60.276 71.4594V58.0125C60.2749 57.9192 60.2377 57.8299 60.1722 57.7633C60.1068 57.6968 60.0182 57.6581 59.9249 57.6554H58.4268C58.3325 57.6566 58.2423 57.6946 58.1756 57.7613C58.1089 57.828 58.0709 57.9182 58.0697 58.0125V71.4695C58.0697 72.5045 56.9871 73.5404 55.2534 72.6537L52.0481 70.7911C51.9303 70.7322 51.8716 70.5816 51.8716 70.4638V56.8239C51.8716 56.7061 51.9303 56.5565 52.0481 56.4986L63.7684 49.699C63.8568 49.6401 64.0036 49.6401 64.1235 49.699L75.8438 56.4986C75.9606 56.5595 76.0223 56.6777 76.0223 56.8239V70.4536C76.0223 70.6009 75.9616 70.722 75.8438 70.7809L64.1133 77.613C64.0249 77.672 63.8781 77.672 63.7582 77.613L60.7632 75.8083C60.6738 75.7494 60.555 75.7217 60.4676 75.7785C59.645 76.2538 59.5003 76.3139 58.7065 76.58C58.5298 76.6389 58.2365 76.7548 58.8235 77.0798L62.7357 79.4188C63.1176 79.625 63.5277 79.7422 63.9697 79.7422C64.4105 79.7422 64.8491 79.6256 65.2016 79.4783L76.9321 72.6462C77.3087 72.4249 77.6207 72.1089 77.8372 71.7295C78.0537 71.3502 78.1671 70.9207 78.1661 70.484V56.8543C78.1661 55.9666 77.6961 55.1419 76.9321 54.6981L65.2016 47.863C64.824 47.6566 64.4 47.5501 63.9697 47.5535V47.5515L63.981 47.5532ZM82.2927 53.778C81.6906 53.7804 81.1141 54.0218 80.6899 54.4492C80.2658 54.8766 80.0287 55.4549 80.0309 56.057C80.0293 56.6588 80.2666 57.2366 80.6906 57.6635C81.1147 58.0905 81.6909 58.3316 82.2927 58.334C83.5287 58.334 84.5575 57.2981 84.5575 56.057C84.5544 55.4562 84.3151 54.8807 83.8914 54.4547C83.4677 54.0287 82.8935 53.7864 82.2927 53.78V53.778ZM82.2629 54.1608H82.2649C82.5155 54.1577 82.7643 54.2046 82.9966 54.2985C83.229 54.3925 83.4403 54.5318 83.6183 54.7083C83.7963 54.8848 83.9374 55.0949 84.0334 55.3265C84.1294 55.558 84.1783 55.8064 84.1773 56.057C84.1773 57.093 83.3234 57.9776 82.2649 57.9776C81.2371 57.9776 80.3819 57.1218 80.3819 56.057C80.3819 54.9926 81.2652 54.1629 82.2629 54.1608ZM81.4398 54.7837V57.3847H81.9416V56.3549H82.3859C82.5626 56.3549 82.6193 56.4139 82.6498 56.5612C82.6498 56.5916 82.7371 57.2408 82.7371 57.3586H83.2647C83.2037 57.2408 83.1771 56.8834 83.1477 56.6762C83.1192 56.3512 83.0905 56.1165 82.7371 56.0871C82.9138 56.0272 83.2052 55.9395 83.2052 55.4662C83.2052 54.7858 82.616 54.7859 82.3225 54.7859L81.4398 54.7837ZM81.8841 55.1983H82.2927C82.441 55.1983 82.6775 55.1979 82.6775 55.5534C82.6775 55.6712 82.6177 55.9084 82.2927 55.9084H81.8841V55.1983ZM67.188 57.2397C63.8364 57.2397 61.8346 58.6606 61.8346 61.0564C61.8346 63.63 63.8334 64.3359 67.0377 64.6609C70.8869 65.0468 71.1814 65.6099 71.1814 66.3783C71.1814 67.7088 70.1232 68.2684 67.6542 68.2684C64.5382 68.2684 63.8608 67.4998 63.6252 65.9335C63.6252 65.7547 63.4825 65.6379 63.3058 65.6379H61.7783C61.7313 65.6377 61.6848 65.6468 61.6414 65.6647C61.5979 65.6825 61.5585 65.7088 61.5253 65.742C61.4921 65.7752 61.4658 65.8147 61.4479 65.8581C61.4301 65.9015 61.421 65.9481 61.4212 65.995C61.4212 68.0059 62.4825 70.3693 67.6277 70.3693C71.3296 70.3693 73.4716 68.8906 73.4716 66.2865C73.4716 63.7444 71.7653 63.0619 68.1517 62.5886C64.5056 62.1153 64.1248 61.8489 64.1248 60.992C64.1248 60.2821 64.4503 59.3376 67.1513 59.3376C69.5634 59.3376 70.4755 59.8698 70.8289 61.4958C70.8457 61.5691 70.886 61.635 70.9437 61.6833C71.0013 61.7317 71.0732 61.7599 71.1483 61.7636H72.7073C72.7957 61.7636 72.8874 61.7055 72.9473 61.6466C73.0023 61.568 73.0327 61.4748 73.0346 61.3788C72.8 58.5401 70.9495 57.2391 67.1866 57.2391L67.188 57.2397Z" fill="#F2F7F1"/>
</g>
<defs>
<clipPath id="clip0_633_2400">
<rect width="130" height="80" fill="white"/>
</clipPath>
</defs>
</svg>
