<svg width="80" height="80" viewBox="0 0 80 80" fill="none" xmlns="http://www.w3.org/2000/svg">
<g clip-path="url(#clip0_633_2416)">
<path d="M47.6562 0.15625C47.5293 0.26125 47.4054 0.447168 47.2704 0.456543L41.726 0.783691L35.1269 1.25244L31.1425 1.56494L23.955 2.18506L21.5722 2.34131L16.0277 2.66113C13.9302 2.79988 11.8286 2.90527 9.74112 3.13965C5.71987 3.59152 2.33865 6.0282 1.5624 10.5957C1.48865 11.0207 1.41348 11.4524 1.41348 11.8799C1.40453 26.7155 1.4029 41.5511 1.4086 56.3867C1.40678 58.3707 2.01536 60.3073 3.15176 61.9336C5.08551 64.7167 7.18461 67.3823 9.23086 70.0879C10.8959 72.2898 12.5411 74.5071 14.2724 76.6577C15.5224 78.2133 17.1481 79.2843 19.0868 79.8462C19.2237 79.8849 19.3408 79.9831 19.4945 80.105C22.7027 80.1562 25.8812 80.1562 29.0624 80.1562C29.1893 80.0513 29.3138 79.8628 29.4481 79.856L33.6278 79.6851L41.7162 79.2163L46.6405 78.9087L54.6508 78.4375L59.6532 78.125C62.2976 77.9662 64.946 77.8585 67.5854 77.6392C69.2772 77.4998 71.0005 77.3655 72.6317 76.9336C75.7249 76.113 77.6903 74.0112 78.5766 70.9399C78.7716 70.2662 78.8921 69.5458 78.8939 68.8452L78.8964 18.6133C78.8933 17.017 78.3545 15.5203 77.1532 14.4653C75.537 13.0447 73.8087 11.7378 72.0556 10.4834C68.2837 7.77777 64.5094 5.07119 60.6444 2.50244C59.3113 1.61369 57.7073 1.13506 56.2279 0.466309C56.0961 0.407559 55.9715 0.329336 55.8178 0.209961L47.6562 0.15625ZM52.5585 4.82056C54.8626 4.84247 56.9051 5.59455 58.8427 7.00439L72.6073 16.7041C73.7498 17.5022 74.2431 18.5011 74.2406 19.9292L74.2187 67.3438V67.9688C74.1624 70.8644 72.769 72.4244 69.8827 72.6562L60.1439 73.2837L40.5834 74.4653L23.203 75.5005C20.6374 75.6711 18.6181 74.8704 17.2094 72.666C16.9188 72.2066 16.5482 71.7966 16.2157 71.3647L8.496 61.4111C6.87225 59.3361 6.04266 57.0802 6.05703 54.3677L6.09854 12.9663C6.09511 12.4467 6.13842 11.9279 6.22793 11.416C6.59418 9.41102 7.86094 8.16113 9.90469 7.97363L20.0219 7.18506L36.14 5.99609L51.5551 4.85596C51.8954 4.82908 52.2293 4.81743 52.5585 4.82056ZM51.997 8.81592L45.6908 9.25537L15.7213 11.4331C14.8157 11.4987 13.9051 11.5648 13.0114 11.7261C12.7139 11.7798 12.3336 12.0828 12.2411 12.356C12.1724 12.5497 12.4746 12.9369 12.6964 13.1494C13.1071 13.5425 13.5801 13.8717 14.027 14.2261C15.0895 15.0636 16.2204 15.8279 17.1947 16.7529C19.0429 18.5079 21.1934 18.9135 23.6571 18.7354L43.0541 17.5195L63.9355 16.2671L64.735 16.1206C64.3519 15.7225 64.1302 15.4176 63.8402 15.2026C62.8169 14.447 61.7836 13.7047 60.7409 12.9761C59.1549 11.8611 57.5643 10.7527 55.9691 9.65088C54.6923 8.95963 53.3639 8.74092 51.997 8.81592ZM67.1264 20.9521L52.7074 21.7822L32.4462 22.9688L22.3168 23.5767C21.0256 23.6598 20.4415 24.216 20.2465 25.4785C20.1952 25.8104 20.1855 26.1518 20.1855 26.4893L20.183 42.5V63.5083L20.1879 67.4146C20.2216 69.1627 21.0789 70.0343 22.8295 70.1343L24.1552 70.1172L38.8061 69.2529L66.7846 67.6538C68.5283 67.5563 69.3339 66.7916 69.497 65.0635L69.5189 64.126L69.5214 23.8281C69.5214 23.5938 69.5291 23.3594 69.5141 23.125C69.4097 21.5231 68.7207 20.8671 67.1264 20.9521ZM62.5658 28.4985C62.9371 30.2367 62.5295 30.8859 60.9032 31.2134C59.2951 31.5378 59.2943 31.5384 59.2943 33.1641L59.3139 60.9766C59.3164 61.6091 59.1239 61.9458 58.5595 62.1289C57.4757 62.4783 56.4138 62.9278 55.3075 63.1641C53.54 63.5453 51.9677 63.0767 50.9008 61.5454C49.4038 59.3916 47.9444 57.2119 46.5233 55.0073L36.8554 39.9121L36.5429 39.4751V59.8267L40.7494 60.7861C40.5738 62.0924 39.8706 62.8929 38.5644 63.1079L35.5346 63.3569L27.8417 63.7988C27.5023 62.7126 27.934 61.8624 28.9428 61.5649L31.2182 60.9229V33.8647L27.8783 33.5791C27.4489 32.0679 28.3864 30.6106 29.9364 30.4688L36.2426 30.0073L39.6703 29.7754C40.1878 29.7191 40.4639 29.8606 40.7445 30.2881L48.7865 42.5415V42.5439C50.6565 45.3829 52.5234 48.2239 54.3871 51.0669V32.2046L51.4452 31.8799C50.8521 31.8455 50.7488 31.5723 50.8275 31.0767C50.9882 30.0485 51.7891 29.165 52.8466 29.0894L62.5658 28.4985Z" fill="#F2F7F1"/>
</g>
<defs>
<clipPath id="clip0_633_2416">
<rect width="80" height="80" fill="white"/>
</clipPath>
</defs>
</svg>
