<svg width="80" height="80" viewBox="0 0 80 80" fill="none" xmlns="http://www.w3.org/2000/svg">
<path d="M14.1663 1C6.33313 1 0 7.33375 0 15.1675V64.8325C0 72.6663 6.33313 79 14.1663 79H65.8337C73.6669 79 80 72.6663 80 64.8325V15.1675C80 7.33375 73.6669 1 65.8337 1H14.1663ZM28.6669 20.8337C31.4 20.8337 33.6669 21.1663 35.5331 21.8663C37.2066 22.4349 38.7324 23.3689 40 24.6006C41.0743 25.6779 41.9043 26.9737 42.4337 28.4C42.9337 29.8 43.1994 31.2331 43.1994 32.7331C43.1994 35.6 42.5331 37.9663 41.1994 39.8331C39.8669 41.6994 38.0006 43.1 35.8337 43.9C33.5669 44.7337 31.0669 45.0331 28.3337 45.0331C27.5337 45.0331 26.9994 45.0331 26.6663 45C26.3331 44.9669 25.8663 44.9669 25.2331 44.9669V55.6669C25.2663 55.9 25.1 56.1006 24.8669 56.1338H18.4C18.1338 56.1338 18.0013 55.9994 18.0013 55.6994V21.4C18.0013 21.1669 18.1012 21.0325 18.3344 21.0325C18.9012 21.0325 19.4344 21.0325 20.2006 21C21.0006 20.9662 21.8338 20.9675 22.7338 20.9337C23.6338 20.9006 24.6006 20.9 25.6337 20.8669C26.6675 20.8331 27.6669 20.8337 28.6669 20.8337ZM29.4106 27.3988C29.2404 27.3954 29.0702 27.3959 28.9 27.4C28.0338 27.4 27.2669 27.4006 26.6331 27.4344C25.9669 27.4006 25.5006 27.4338 25.2675 27.4669V38.6669C25.7338 38.7006 26.1663 38.7331 26.5663 38.7331H28.3337C29.6337 38.7331 30.9337 38.5331 32.1669 38.1331C33.2337 37.8331 34.1669 37.1994 34.9 36.3663C35.6 35.5325 35.9337 34.4 35.9337 32.9331C35.9653 31.8917 35.6995 30.8628 35.1675 29.9669C34.6006 29.1006 33.8 28.4331 32.8331 28.0669C31.7538 27.6294 30.5981 27.4219 29.4106 27.3988ZM57.3669 29.1006C58.7338 29.1006 60.1338 29.1994 61.5 29.3994C62.5 29.5325 63.4663 29.8006 64.3663 30.1675C64.5 30.2006 64.6331 30.3331 64.6994 30.4662C64.7331 30.5994 64.7669 30.7331 64.7669 30.8663V36.3C64.7675 36.3647 64.7527 36.4286 64.7238 36.4866C64.6949 36.5445 64.6527 36.5947 64.6006 36.6331C64.3006 36.7 64.1338 36.7 64.0006 36.6331C63.0006 36.1 61.9331 35.7338 60.7994 35.5006C59.5662 35.2338 58.3331 35.0663 57.0669 35.0663C56.4 35.0325 55.6994 35.1338 55.0663 35.3C54.6325 35.4 54.2663 35.6338 54.0331 35.9669C53.8669 36.2338 53.7669 36.5669 53.7669 36.8669C53.7669 37.1669 53.9006 37.4669 54.1006 37.7331C54.4006 38.1 54.8 38.4006 55.2331 38.6344C56.0061 39.034 56.7957 39.4004 57.6 39.7325C59.4 40.3325 61.1331 41.1669 62.7331 42.1669C63.8331 42.8669 64.7331 43.8006 65.3662 44.9337C65.9023 45.997 66.166 47.1766 66.1338 48.3669C66.1603 49.9424 65.7064 51.4888 64.8325 52.8C63.903 54.1304 62.606 55.1612 61.1 55.7662C59.4663 56.4662 57.4663 56.8331 55.0663 56.8331C53.5325 56.8331 52.0337 56.7 50.5337 56.4C49.3581 56.1968 48.2147 55.838 47.1338 55.3331C46.9006 55.2 46.7331 54.9662 46.7662 54.6994V48.9C46.7662 48.8 46.7994 48.6663 46.8994 48.6C46.9994 48.5331 47.0994 48.5675 47.1994 48.6338C48.4835 49.3909 49.8783 49.9422 51.3331 50.2675C52.6 50.6006 53.9338 50.7669 55.2675 50.7669C56.5338 50.7669 57.4337 50.6 58.0337 50.3C58.5669 50.0669 58.9331 49.5 58.9331 48.9C58.9331 48.4337 58.6669 47.9994 58.1331 47.5656C57.6 47.1325 56.5 46.6331 54.8669 46C53.1912 45.4096 51.5998 44.6027 50.1331 43.6C49.0887 42.8556 48.2234 41.8877 47.6 40.7669C47.068 39.7141 46.8048 38.5461 46.8337 37.3669C46.8337 35.9338 47.2331 34.5669 47.9663 33.3338C48.7994 32.0006 50.0337 30.9338 51.4675 30.2675C53.0337 29.4675 54.9994 29.1006 57.3669 29.1006Z" fill="#F2F7F1"/>
</svg>
