<svg width="133" height="70" viewBox="0 0 133 70" fill="none" xmlns="http://www.w3.org/2000/svg">
<g clip-path="url(#clip0_633_2393)">
<path d="M65.9805 -0.0847168C29.2538 -0.0847168 -0.519531 15.6653 -0.519531 35.0908C-0.519531 54.5163 29.2538 70.2663 65.9805 70.2663C102.706 70.2663 132.48 54.5163 132.48 35.0908C132.48 15.6653 102.707 -0.0847168 65.9805 -0.0847168ZM59.7648 10.1645H67.3427V10.1677L65.5295 19.5372H72.2793C76.5259 19.5372 79.4571 20.2832 81.0677 21.772C82.6813 23.2629 83.1634 25.6763 82.5203 29.0123L79.348 45.4153H71.6506L74.666 29.8178C75.0089 28.0438 74.8821 26.835 74.2867 26.1893C73.6914 25.5447 72.4237 25.2229 70.4858 25.2229H64.4302L60.5275 45.4132H52.9517L59.7648 10.1645ZM27.2546 19.5383H41.9397C46.3578 19.5383 49.582 20.7042 51.6082 23.0362C53.6343 25.3681 54.2432 28.6215 53.4348 32.8007C53.1023 34.5235 52.5381 36.0959 51.7464 37.523C50.9535 38.9481 49.9176 40.253 48.6396 41.4357C47.1142 42.8702 45.4205 43.8941 43.5575 44.5032C41.6934 45.1144 39.3181 45.4174 36.4316 45.4174H29.8917L28.0786 54.789H20.4415L27.2546 19.5383ZM86.8615 19.5383H101.543C105.962 19.5383 109.184 20.7042 111.21 23.0362H111.212C113.238 25.3681 113.849 28.6215 113.041 32.8007C112.708 34.5235 112.146 36.0959 111.354 37.523C110.561 38.9481 109.526 40.253 108.245 41.4357C106.721 42.8702 105.026 43.8941 103.161 44.5032C101.297 45.1144 98.925 45.4174 96.0385 45.4174H89.4976L87.6854 54.789H80.0483L86.8615 19.5383ZM33.8163 25.1017L30.9672 39.8539H35.6097C38.6885 39.8539 40.9837 39.273 42.4904 38.106C43.997 36.9401 45.0132 34.9915 45.5421 32.2636C46.0461 29.6444 45.8164 27.793 44.8501 26.7169C43.8838 25.6387 41.9511 25.1007 39.048 25.1007L33.8163 25.1017ZM93.42 25.1017L90.5688 39.8539H95.2135C98.2943 39.8539 100.585 39.273 102.094 38.106C103.6 36.9401 104.616 34.9915 105.144 32.2636C105.65 29.6444 105.42 27.793 104.454 26.7169C103.488 25.6387 101.553 25.1007 98.6517 25.1007L93.42 25.1017Z" fill="#F2F7F1"/>
</g>
<defs>
<clipPath id="clip0_633_2393">
<rect width="133" height="70" fill="white"/>
</clipPath>
</defs>
</svg>
