<svg width="80" height="80" viewBox="0 0 80 80" fill="none" xmlns="http://www.w3.org/2000/svg">
<path d="M18.9467 40C18.3885 39.9991 17.8535 39.7768 17.4592 39.3818C17.0648 38.9868 16.8433 38.4515 16.8433 37.8933V14.7367C16.8433 13.5733 17.7833 12.63 18.9467 12.63H26.8467C28.38 12.63 29.81 12.7867 31.1367 13.0933C32.4933 13.3733 33.6633 13.86 34.6467 14.56C35.6567 15.2333 36.45 16.1433 37.03 17.2933C37.6067 18.41 37.8967 19.7933 37.8967 21.4467C37.8967 23.0433 37.59 24.4267 36.9867 25.6033C36.436 26.746 35.6185 27.7395 34.6033 28.5C33.5496 29.2754 32.3586 29.8443 31.0933 30.1767C29.7667 30.5433 28.35 30.7233 26.85 30.7233H25.3167C24.7579 30.7233 24.2221 30.9453 23.827 31.3404C23.432 31.7354 23.21 32.2713 23.21 32.83V37.8967C23.2091 38.4548 22.9868 38.9898 22.5918 39.3842C22.1968 39.7785 21.6615 40 21.1033 40H18.9467ZM23.21 23.7067C23.21 24.87 24.1533 25.8133 25.3167 25.8133H26.46C29.9267 25.8133 31.66 24.3567 31.66 21.4467C31.66 20.02 31.21 19.0133 30.3133 18.4233C29.4467 17.8367 28.1633 17.5433 26.46 17.5433H25.3167C24.7585 17.5433 24.2232 17.7648 23.8282 18.1592C23.4332 18.5535 23.2109 19.0885 23.21 19.6467V23.7067ZM44.21 67.3667C43.6524 67.3658 43.118 67.1439 42.7237 66.7496C42.3294 66.3554 42.1075 65.8209 42.1067 65.2633V42.1067C42.1058 41.83 42.1596 41.556 42.2649 41.3002C42.3703 41.0444 42.5251 40.812 42.7206 40.6162C42.916 40.4205 43.1482 40.2653 43.4038 40.1595C43.6594 40.0538 43.9334 39.9996 44.21 40H51.5533C53.02 40 54.37 40.1133 55.6067 40.3333C56.8733 40.5333 57.9667 40.8967 58.8867 41.4267C59.8067 41.96 60.5267 42.66 61.0433 43.5267C61.59 44.3933 61.8633 45.4833 61.8633 46.8C61.8633 47.4167 61.7633 48.0333 61.5633 48.6467C61.3858 49.2696 61.0917 49.8533 60.6967 50.3667C59.8165 51.5461 58.5449 52.3733 57.11 52.7C57.088 52.7059 57.0685 52.7189 57.0547 52.737C57.0408 52.755 57.0333 52.7772 57.0333 52.8C57.0333 52.85 57.0667 52.8933 57.1167 52.9C59.0867 53.27 60.5833 53.9667 61.6033 54.9867C62.64 56.02 63.1567 57.4633 63.1567 59.31C63.1567 60.71 62.8833 61.91 62.3367 62.92C61.788 63.9296 61.0049 64.7927 60.0533 65.4367C58.9919 66.1152 57.8248 66.612 56.6 66.9067C55.214 67.2252 53.7955 67.3807 52.3733 67.37L44.21 67.3667ZM48.4467 48.8933C48.4467 50.0567 49.39 50.9967 50.5533 50.9967H51.2533C52.8033 50.9967 53.9267 50.7033 54.6167 50.1167C55.3067 49.53 55.65 48.7033 55.65 47.64C55.65 46.6333 55.2933 45.92 54.5733 45.5C53.8833 45.05 52.79 44.8267 51.2933 44.8267H50.5533C49.9946 44.8267 49.4588 45.0486 49.0637 45.4437C48.6686 45.8388 48.4467 46.3746 48.4467 46.9333V48.8933ZM48.4467 60.4367C48.4467 61.6 49.39 62.54 50.5533 62.54H51.8533C55.25 62.54 56.9467 61.31 56.9467 58.8467C56.9467 57.6467 56.53 56.7767 55.6933 56.2467C54.89 55.7133 53.61 55.4467 51.8533 55.4467H50.5533C49.9946 55.4467 49.4588 55.6686 49.0637 56.0637C48.6686 56.4588 48.4467 56.9946 48.4467 57.5533V60.4367ZM4.63 0C2.09667 0 0 2.09667 0 4.63V50.1C0.00871668 51.3256 0.499213 52.4985 1.36553 53.3655C2.23185 54.2324 3.40444 54.7237 4.63 54.7333H27.3667C27.9242 54.7316 28.4584 54.5088 28.852 54.114C29.2456 53.7191 29.4667 53.1842 29.4667 52.6267C29.4649 52.0703 29.2431 51.5371 28.8496 51.1437C28.4562 50.7502 27.9231 50.5284 27.3667 50.5267H4.63C4.37 50.5267 4.21333 50.36 4.21333 50.1V4.63333C4.21333 4.37333 4.37 4.21667 4.63 4.21667H50.1C50.36 4.21667 50.5233 4.37333 50.5233 4.63333V27.3667C50.5251 27.9237 50.7474 28.4573 51.1415 28.8508C51.5357 29.2444 52.0697 29.4658 52.6267 29.4667C53.1848 29.4676 53.7205 29.2469 54.1161 28.8532C54.5117 28.4594 54.7349 27.9248 54.7367 27.3667V4.63C54.7271 3.40501 54.2362 2.23292 53.37 1.36669C52.5037 0.500468 51.3317 0.00958768 50.1067 0L4.63 0ZM52.6333 25.26C52.3564 25.26 52.0822 25.3146 51.8264 25.4207C51.5706 25.5268 51.3382 25.6822 51.1425 25.8782C50.9468 26.0742 50.7917 26.3068 50.6861 26.5628C50.5804 26.8188 50.5262 27.0931 50.5267 27.37C50.5284 27.927 50.7507 28.4606 51.1449 28.8542C51.539 29.2477 52.073 29.4691 52.63 29.47H75.37C75.63 29.47 75.7867 29.6367 75.7867 29.8967V75.3667C75.7867 75.6267 75.63 75.7833 75.37 75.7833H29.9C29.6433 75.7833 29.4767 75.6267 29.4767 75.3667V52.6333C29.4749 52.0763 29.2526 51.5427 28.8585 51.1492C28.4643 50.7556 27.9303 50.5342 27.3733 50.5333C26.8152 50.5324 26.2795 50.7531 25.8839 51.1468C25.4883 51.5406 25.2651 52.0752 25.2633 52.6333V75.3733C25.2738 76.5977 25.7651 77.769 26.6312 78.6345C27.4973 79.5 28.6689 79.9904 29.8933 80H75.37C77.9033 80 80 77.9033 80 75.37V29.9C79.9913 28.6744 79.5008 27.5015 78.6345 26.6345C77.7682 25.7676 76.5956 25.2763 75.37 25.2667L52.6333 25.26Z" fill="#F2F7F1"/>
</svg>
