<svg width="80" height="80" viewBox="0 0 80 80" fill="none" xmlns="http://www.w3.org/2000/svg">
<path d="M30.8314 38.7499H49.0558C54.1289 38.7499 58.1251 34.4574 58.1251 29.3631V11.9893C58.1251 7.04432 53.9801 3.32932 49.0283 2.50432C45.8945 1.98244 42.6564 1.74494 39.5364 1.75994C36.4176 1.77432 33.5289 2.03994 30.9083 2.50432C23.1864 3.86744 21.8751 6.7237 21.8751 11.9893V18.7499H40.0001V21.2499H14.8601C9.55763 21.2499 4.91388 24.4424 3.46201 30.5068C1.78638 37.4568 1.71201 41.7062 3.46201 48.9631C4.75888 54.3643 7.85576 58.1249 13.1589 58.1249H19.3751V49.9699C19.3751 43.9468 24.6426 38.7499 30.8314 38.7499ZM29.6826 14.3062C27.7914 14.3062 26.2589 12.7568 26.2589 10.8406C26.2589 8.91619 27.7908 7.35244 29.6826 7.35244C31.567 7.35244 33.107 8.91619 33.107 10.8406C33.1064 12.7568 31.5664 14.3062 29.6826 14.3062ZM76.4258 30.5068C75.1145 25.2268 72.6114 21.2499 67.3014 21.2499H60.6251V29.3631C60.6251 35.6443 55.1289 40.6249 49.0558 40.6249H30.8314C25.8389 40.6249 21.8751 45.2037 21.8751 50.2037V67.5787C21.8751 72.5224 26.0908 75.4312 30.9139 76.8499C36.6901 78.5481 42.1601 78.8549 49.0708 76.8499C53.6639 75.5193 58.1251 72.8431 58.1251 67.5787V60.6249H40.0001V58.1249H67.3014C72.6039 58.1249 74.5808 54.5149 76.4258 48.9624C78.3301 43.2468 78.2483 37.8381 76.4258 30.5068ZM50.2039 65.2606C52.0958 65.2606 53.6283 66.8099 53.6283 68.7274C53.6283 70.6499 52.0964 72.2143 50.2039 72.2143C48.3195 72.2143 46.7801 70.6506 46.7801 68.7274C46.7801 66.8099 48.3195 65.2606 50.2039 65.2606Z" fill="#F2F7F1"/>
</svg>
