<svg width="80" height="80" viewBox="0 0 80 80" fill="none" xmlns="http://www.w3.org/2000/svg">
<path d="M39.9997 47.2843C44.0227 47.2843 47.284 44.023 47.284 39.9999C47.284 35.9769 44.0227 32.7156 39.9997 32.7156C35.9766 32.7156 32.7153 35.9769 32.7153 39.9999C32.7153 44.023 35.9766 47.2843 39.9997 47.2843Z" fill="#F2F7F1"/>
<path d="M67.6677 27.9873C66.262 27.4761 64.7923 26.965 63.2588 26.5177C63.6422 24.9841 63.9617 23.4506 64.2173 21.9809C65.5591 13.5464 64.0895 7.60393 60 5.30361C58.7859 4.60074 57.4441 4.28125 55.9105 4.28125C51.4377 4.28125 45.7508 7.60393 40 13.163C34.2492 7.60393 28.5623 4.28125 24.0895 4.28125C22.5559 4.28125 21.2141 4.60074 20 5.30361C15.9105 7.66783 14.4409 13.6103 15.7827 21.9809C16.0383 23.4506 16.3578 24.9841 16.7412 26.5177C15.2077 26.965 13.738 27.4122 12.3323 27.9873C4.34505 31.0544 0 35.2717 0 40.0001C0 44.7285 4.40895 48.9458 12.3323 52.0129C13.738 52.5241 15.2077 53.0352 16.7412 53.4825C16.3578 55.0161 16.0383 56.5496 15.7827 58.0193C14.4409 66.4538 15.9105 72.3963 20 74.6966C21.2141 75.3995 22.5559 75.719 24.0895 75.719C28.6262 75.719 34.3131 72.3963 40 66.8372C45.7508 72.3963 51.4377 75.719 55.9105 75.719C57.4441 75.719 58.7859 75.3995 60 74.6966C64.0895 72.3324 65.5591 66.3899 64.2173 58.0193C63.9617 56.5496 63.6422 55.0161 63.2588 53.4825C64.7923 53.0352 66.262 52.588 67.6677 52.0129C75.655 48.9458 80 44.7285 80 40.0001C80 35.2717 75.655 31.0544 67.6677 27.9873ZM58.2109 8.4985C60.8307 10.032 61.7252 14.7605 60.639 21.4697C60.4473 22.8116 60.1278 24.2174 59.7444 25.687C56.4217 24.9202 52.9073 24.409 49.2013 24.0896C47.0288 21.0225 44.7923 18.2749 42.5559 15.7828C47.2843 11.1183 52.0767 7.92342 55.9744 7.92342C56.8051 7.92342 57.5719 8.11512 58.2109 8.4985ZM51.0543 46.3899C49.9042 48.4346 48.5623 50.4793 47.1565 52.5241C44.7923 52.7158 42.4281 52.7797 40 52.7797C37.508 52.7797 35.1438 52.7158 32.8434 52.5241C31.4377 50.4793 30.1597 48.4346 29.0096 46.3899C27.7955 44.2813 26.6454 42.1087 25.623 40.0001C26.6454 37.8915 27.7955 35.719 29.0096 33.6103C30.1597 31.5656 31.5016 29.5209 32.9073 27.4761C35.2716 27.2844 37.6358 27.2205 40.0639 27.2205C42.5559 27.2205 44.9201 27.2844 47.2204 27.4761C48.6262 29.5209 49.9042 31.5656 51.0543 33.6103C52.2684 35.719 53.4185 37.8915 54.4409 40.0001C53.3546 42.1087 52.2684 44.2174 51.0543 46.3899ZM56.3578 44.2812C57.3163 46.5177 58.0831 48.6902 58.7859 50.8627C56.6134 51.3739 54.3131 51.7573 51.885 52.0768C52.6518 50.8627 53.4824 49.5848 54.1853 48.2429C54.9521 46.9011 55.655 45.5592 56.3578 44.2812ZM40 61.5975C38.4665 59.9362 36.9968 58.1471 35.5911 56.294C37.0607 56.3579 38.5304 56.4218 40 56.4218C41.4696 56.4218 42.9393 56.3579 44.4089 56.294C43.0032 58.1471 41.5335 59.9362 40 61.5975ZM28.115 52.0129C25.6869 51.6934 23.3866 51.31 21.2141 50.7988C21.9169 48.6902 22.6837 46.4538 23.6422 44.2174C24.345 45.4953 25.0479 46.8372 25.8147 48.1151C26.5815 49.5209 27.3482 50.7349 28.115 52.0129ZM23.6422 35.7189C22.6837 33.4825 21.9169 31.31 21.2141 29.1375C23.3866 28.6263 25.6869 28.2429 28.115 27.9234C27.3482 29.1375 26.5176 30.4154 25.8147 31.7573C25.0479 33.0991 24.345 34.441 23.6422 35.7189ZM40 18.4027C41.5335 20.064 43.0032 21.8531 44.4089 23.7062C42.9393 23.6423 41.4696 23.5784 40 23.5784C38.5304 23.5784 37.0607 23.6423 35.5911 23.7062C36.9968 21.8531 38.4665 20.064 40 18.4027ZM54.1853 31.8212L51.885 27.9873C54.3131 28.3068 56.6134 28.6902 58.7859 29.2014C58.0831 31.31 57.3163 33.5464 56.3578 35.7828C55.655 34.441 54.9521 33.0991 54.1853 31.8212ZM19.361 21.4697C18.2748 14.7605 19.1693 10.032 21.7891 8.4985C22.4281 8.11512 23.1949 7.92342 24.0256 7.92342C27.8594 7.92342 32.6518 11.0544 37.4441 15.7828C35.2077 18.211 32.9712 21.0225 30.7987 24.0896C27.0927 24.409 23.5783 24.9841 20.2556 25.687C19.8722 24.2174 19.6166 22.8116 19.361 21.4697ZM3.57827 40.0001C3.57827 36.9969 7.22045 33.802 13.6102 31.4378C14.8882 30.9266 16.2939 30.4793 17.6997 30.0959C18.722 33.2908 20 36.6774 21.5335 40.064C20 43.4506 18.6581 46.7733 17.6997 49.9682C8.88179 47.4122 3.57827 43.5784 3.57827 40.0001ZM21.7891 71.5017C19.1693 69.9682 18.2748 65.2397 19.361 58.5305C19.5527 57.1886 19.8722 55.7829 20.2556 54.3132C23.5783 55.08 27.0927 55.5912 30.7987 55.9106C32.9712 58.9777 35.2077 61.7253 37.4441 64.2174C32.7157 68.8819 27.9233 72.0768 24.0256 72.0768C23.1949 72.0768 22.4281 71.8851 21.7891 71.5017ZM60.639 58.5305C61.7252 65.2397 60.8307 69.9682 58.2109 71.5017C57.5719 71.8851 56.8051 72.0768 55.9744 72.0768C52.1406 72.0768 47.3482 68.9458 42.5559 64.2174C44.7923 61.7892 47.0288 58.9777 49.2013 55.9106C52.9073 55.5912 56.4217 55.0161 59.7444 54.3132C60.1278 55.7829 60.3834 57.1886 60.639 58.5305ZM66.3898 48.5624C65.1118 49.0736 63.7061 49.5209 62.3003 49.9043C61.278 46.7094 60 43.3228 58.4665 39.9362C60 36.5496 61.3419 33.2269 62.3003 30.0321C71.1182 32.588 76.4217 36.4218 76.4217 40.0001C76.4217 43.0033 72.7157 46.1982 66.3898 48.5624Z" fill="#F2F7F1"/>
</svg>
