<svg width="80" height="80" viewBox="0 0 80 80" fill="none" xmlns="http://www.w3.org/2000/svg">
<path d="M38.52 13.5C27.4563 13.5 20.5422 18.8986 17.7778 29.6959C21.9259 24.2958 26.7659 22.2715 32.2978 23.623C35.4533 24.3915 37.7067 26.6263 40.2 29.0997C44.2711 33.1277 49.0889 37.7917 59.2578 37.7917C70.3215 37.7917 77.2356 32.393 80 21.5958C75.8519 26.9959 71.0119 29.0202 65.48 27.6687C62.3244 26.9002 60.0711 24.6653 57.5778 22.192C53.5067 18.164 48.8 13.5 38.52 13.5ZM20.7422 42.2083C9.67852 42.2083 2.76444 47.607 0 58.4042C4.14815 53.0041 8.98815 50.9798 14.52 52.3313C17.6756 53.0998 19.9289 55.3347 22.4222 57.808C26.4933 61.836 31.2 66.5 41.48 66.5C52.5437 66.5 59.4578 61.1014 62.2222 50.3041C58.0741 55.7042 53.2341 57.7285 47.7022 56.377C44.5467 55.6085 42.2933 53.3737 39.8 50.9003C35.7289 46.8723 31.0222 42.2083 20.7422 42.2083Z" fill="#F2F7F1"/>
</svg>
