<svg width="80" height="80" viewBox="0 0 80 80" fill="none" xmlns="http://www.w3.org/2000/svg">
<path d="M1.25912 0.000118333C1.12484 0.00252056 0.992832 0.0351347 0.872888 0.0955397C0.752943 0.155945 0.648143 0.24259 0.566268 0.349042C0.484394 0.455494 0.427547 0.57902 0.399947 0.71045C0.372348 0.84188 0.374705 0.977837 0.406843 1.10823L19.7287 79.3193C19.7662 79.4719 19.8433 79.6118 19.9521 79.7251C20.0608 79.8384 20.1975 79.921 20.3484 79.9647C20.4993 80.0084 20.659 80.0116 20.8115 79.9739C20.964 79.9363 21.1038 79.8591 21.217 79.7502L79.3443 23.8376C79.4576 23.7288 79.5402 23.592 79.5838 23.4411C79.6274 23.2902 79.6305 23.1305 79.5927 22.978C79.555 22.8255 79.4778 22.6857 79.3688 22.5725C79.2598 22.4594 79.123 22.3769 78.972 22.3335L1.52129 0.0349694C1.43611 0.0104215 1.34775 -0.00132374 1.25912 0.000118333ZM2.51376 2.18149L76.9879 23.623L21.0943 77.3867L2.51376 2.18149Z" fill="#F2F7F1"/>
<path d="M40.0061 11.1511C39.8884 11.1485 39.7714 11.1693 39.6617 11.2121C39.552 11.2549 39.4518 11.319 39.3669 11.4006L10.3168 39.3648C10.2037 39.4737 10.1213 39.6105 10.0779 39.7613C10.0344 39.9122 10.0315 40.0718 10.0693 40.2242C10.1071 40.3766 10.1844 40.5163 10.2933 40.6293C10.4022 40.7424 10.539 40.8248 10.6898 40.8682L49.3899 52.0222C49.5406 52.0657 49.7001 52.0687 49.8524 52.031C50.0047 51.9933 50.1444 51.9163 50.2575 51.8075C50.3706 51.6988 50.4531 51.5622 50.4967 51.4115C50.5403 51.2608 50.5434 51.1012 50.5059 50.9489L40.856 11.8307C40.8089 11.6397 40.7 11.4696 40.5464 11.3467C40.3927 11.2239 40.2028 11.1551 40.0061 11.1511ZM39.4905 13.7649L48.3998 49.8757L12.674 39.5787L39.4905 13.7649Z" fill="#F2F7F1"/>
<path d="M25.5716 24.9911C25.4373 24.9935 25.3053 25.0261 25.1854 25.0865C25.0654 25.1469 24.9606 25.2336 24.8788 25.34C24.7969 25.4465 24.74 25.57 24.7124 25.7014C24.6848 25.8328 24.6872 25.9688 24.7193 26.0992L29.5146 45.5296C29.5521 45.6822 29.6292 45.8222 29.7381 45.9356C29.847 46.0489 29.9838 46.1315 30.1348 46.1751C30.2858 46.2187 30.4456 46.2218 30.5981 46.184C30.7507 46.1461 30.8905 46.0688 31.0037 45.9597L45.4369 32.0485C45.5499 31.9395 45.6323 31.8027 45.6757 31.6518C45.7191 31.5009 45.722 31.3412 45.6841 31.1888C45.6462 31.0365 45.5688 30.8967 45.4598 30.7838C45.3508 30.6708 45.2139 30.5884 45.063 30.5451L25.8338 25.0259C25.7486 25.0014 25.6603 24.9896 25.5716 24.9911ZM26.8255 27.1701L43.0804 31.8354L30.8785 43.5946L26.8255 27.1701Z" fill="#F2F7F1"/>
<path d="M20.8104 5.58185C20.6926 5.57941 20.5755 5.60026 20.4658 5.64322C20.3561 5.68617 20.256 5.75038 20.1712 5.83214L5.73798 19.7426C5.62494 19.8515 5.54258 19.9884 5.49918 20.1393C5.45579 20.2902 5.45289 20.4498 5.49079 20.6022C5.52868 20.7546 5.60603 20.8943 5.71505 21.0073C5.82407 21.1203 5.96092 21.2026 6.11184 21.2459L25.3379 26.7659C25.4887 26.8093 25.6482 26.8122 25.8004 26.7744C25.9527 26.7366 26.0923 26.6594 26.2053 26.5506C26.3183 26.4418 26.4007 26.3051 26.4442 26.1544C26.4877 26.0037 26.4908 25.8441 26.4531 25.6919L21.6603 6.26224C21.6134 6.07095 21.5047 5.9005 21.351 5.77733C21.1973 5.65416 21.0073 5.58595 20.8104 5.58185ZM20.2955 8.19569L24.3462 24.6202L8.0952 19.9549L20.2955 8.19569ZM59.2664 16.6582C59.1488 16.6559 59.0318 16.6768 58.9223 16.7198C58.8127 16.7627 58.7127 16.8269 58.628 16.9085L44.1932 30.8182C44.08 30.9271 43.9975 31.064 43.954 31.215C43.9104 31.366 43.9075 31.5258 43.9454 31.6783C43.9833 31.8308 44.0607 31.9706 44.1699 32.0837C44.279 32.1968 44.416 32.2791 44.5671 32.3223L63.7939 37.8415C63.9447 37.8848 64.1042 37.8878 64.2565 37.85C64.4088 37.8122 64.5484 37.735 64.6614 37.6262C64.7744 37.5174 64.8568 37.3807 64.9003 37.23C64.9438 37.0793 64.9468 36.9197 64.9092 36.7674L60.1171 17.3378C60.0701 17.1466 59.9612 16.9762 59.8073 16.8532C59.6535 16.7301 59.4634 16.6621 59.2664 16.6582ZM58.7516 19.2721L62.8023 35.6974L46.5513 31.032L58.7516 19.2729V19.2721ZM30.3486 44.4371C30.1292 44.4455 29.9206 44.5343 29.7624 44.6866L15.3292 58.5978C15.2162 58.7068 15.1338 58.8436 15.0904 58.9945C15.047 59.1454 15.0441 59.3051 15.082 59.4575C15.1199 59.6099 15.1973 59.7496 15.3063 59.8626C15.4153 59.9756 15.5522 60.0579 15.7031 60.1012L34.9331 65.6204C35.0837 65.6635 35.2431 65.6663 35.3951 65.6284C35.5472 65.5906 35.6866 65.5135 35.7995 65.4048C35.9123 65.2961 35.9947 65.1596 36.0382 65.0091C36.0817 64.8586 36.085 64.6993 36.0475 64.5471L31.2515 45.1167C31.2023 44.9168 31.0855 44.74 30.921 44.6162C30.7565 44.4924 30.5543 44.4291 30.3486 44.4371ZM29.8876 47.051L33.9414 63.4762L17.6864 58.8109L29.8876 47.051Z" fill="#F2F7F1"/>
</svg>
