<svg width="80" height="80" viewBox="0 0 80 80" fill="none" xmlns="http://www.w3.org/2000/svg">
<g clip-path="url(#clip0_633_2414)">
<path fill-rule="evenodd" clip-rule="evenodd" d="M56.7296 79.4538C57.3662 79.702 58.0471 79.8166 58.7298 79.7904C59.4126 79.7641 60.0827 79.5977 60.6983 79.3013L77.169 71.3757C78.0172 70.9674 78.7329 70.3279 79.2338 69.5308C79.7346 68.7338 80.0003 67.8115 80.0002 66.8701V13.1307C80.0004 12.1892 79.7348 11.2668 79.2339 10.4696C78.7331 9.67242 78.0173 9.03283 77.169 8.62446L60.6983 0.700089C59.7677 0.25228 58.7208 0.10484 57.7026 0.278175C56.6844 0.45151 55.7453 0.937047 55.0152 1.66759L23.484 30.4338L9.75022 20.0082C9.13069 19.5378 8.36603 19.2992 7.58892 19.3336C6.81181 19.3681 6.07129 19.6736 5.49585 20.197L1.09085 24.2038C0.747567 24.5161 0.473232 24.8965 0.285395 25.3208C0.0975581 25.7451 0.00035393 26.204 9.64723e-07 26.668C-0.000352001 27.132 0.096154 27.591 0.283345 28.0156C0.470537 28.4402 0.744292 28.8211 1.0871 29.1338L12.9977 40.0001L1.08772 50.867C0.745104 51.1798 0.471513 51.5606 0.284437 51.9851C0.0973623 52.4097 0.000918915 52.8686 0.00127184 53.3325C0.00162477 53.7964 0.0987662 54.2552 0.286487 54.6794C0.474208 55.1037 0.748378 55.4841 1.09147 55.7963L5.49647 59.8032C6.07178 60.3268 6.81228 60.6325 7.58942 60.6671C8.36657 60.7016 9.13129 60.463 9.75085 59.9926L23.4846 49.5676L55.0159 78.3332C55.5034 78.8216 56.0866 79.2032 56.7296 79.4538ZM60.0121 21.8395L36.0877 40.0001L60.0127 58.1613L60.0121 21.8395Z" fill="#F2F7F1"/>
</g>
<defs>
<clipPath id="clip0_633_2414">
<rect width="80" height="80" fill="white"/>
</clipPath>
</defs>
</svg>
