<svg width="52" height="46" viewBox="0 0 52 46" fill="none" xmlns="http://www.w3.org/2000/svg">
<g clip-path="url(#clip0_594_2404)">
<path d="M9.80187 44.7822C9.68858 45.1029 10.0894 45.3698 10.3879 45.1706L12.1308 44.0134L15.7821 41.5873L16.6818 39.0537L18.0979 35.0719V35.068L20.4834 28.3574L21.1021 26.6145L21.8886 24.4056L22.9997 25.6166L26.0061 28.8932L29.0147 25.6146L30.1062 24.4255L30.884 26.6145L31.4874 28.3116L33.8882 35.068C33.8882 35.068 33.8904 35.0719 33.8904 35.0739L35.289 39.0078L36.2062 41.5873L39.9229 44.0552L41.6004 45.1706C41.8988 45.3698 42.2997 45.1029 42.1864 44.7822L39.3935 36.9264L36.2258 28.0088L34.8054 24.0132L33.8621 21.36L33.5985 20.6211L32.3175 17.0118L31.921 15.8964L28.4287 19.7028L26.0061 22.34L23.5683 19.6829L20.0739 15.8765L19.6708 17.0118L18.3964 20.6031L18.1262 21.36L17.1829 24.0132L15.7625 28.0088L12.5796 36.9722H12.5774L9.80187 44.7842V44.7822Z" fill="#7665F3"/>
<path d="M32.3178 17.0098L33.5988 20.619L33.8624 21.358H38.7403C38.7577 21.358 38.7664 21.3799 38.7512 21.3898L34.8058 24.0111L36.2262 28.0068L51.8313 17.6392C52.1298 17.44 51.9773 17.0098 51.6069 17.0098H32.3178Z" fill="#F2F7F1"/>
<path d="M20.0738 15.8746L23.5682 19.681L25.9756 12.9027C25.9756 12.9027 25.9756 12.9007 25.9777 12.9007L25.993 12.8529L26.0104 12.9007H26.0126L28.4286 19.7009L31.9209 15.8945L28.4177 6.0368H28.4156L26.3546 0.240516C26.2413 -0.080172 25.7446 -0.080172 25.6313 0.240516L23.5704 6.0368L20.0738 15.8765V15.8746Z" fill="#F2F7F1"/>
<path d="M15.7829 41.5873L25.9939 34.8031L36.207 41.5873L35.2899 39.0079L33.8912 35.074C33.8912 35.0879 33.8738 35.0959 33.8607 35.0879L28.3097 31.401L25.9939 29.8633L23.7477 31.3552L18.1292 35.0879C18.1161 35.0979 18.0987 35.0859 18.0987 35.072L16.6826 39.0537L15.7829 41.5873Z" fill="#F2F7F1"/>
<path d="M0.15738 17.6392L15.7625 28.0068L17.183 24.0111L13.2376 21.3898C13.2223 21.3799 13.231 21.358 13.2485 21.358H18.1263L18.3964 20.6011L19.6709 17.0098H0.381773C0.0135933 17.0098 -0.141085 17.442 0.15738 17.6392Z" fill="#F2F7F1"/>
<path d="M33.9689 21.6586L34.6988 23.7142C34.7511 23.8616 34.945 23.9194 35.0844 23.8278L38.7509 21.3917C38.7662 21.3818 38.7575 21.3599 38.74 21.3599H34.2064C34.0365 21.3599 33.9167 21.5112 33.9689 21.6586Z" fill="#060709"/>
<path d="M23.658 19.7785L25.8148 22.1308C25.915 22.2404 26.098 22.2404 26.1982 22.1308L28.3398 19.7984C28.3942 19.7386 28.4117 19.655 28.3855 19.5813L26.013 12.9026H26.0109C26.0043 12.8867 25.9847 12.8867 25.9782 12.9006C25.976 12.9006 25.976 12.9026 25.976 12.9026L23.6123 19.5614C23.5861 19.637 23.6035 19.7187 23.658 19.7785Z" fill="#060709"/>
<path d="M18.0983 35.0678C18.0961 35.0838 18.1136 35.0977 18.1288 35.0878C19.6603 34.0699 24.2049 31.0523 25.8475 29.9607C25.9346 29.903 26.0523 29.903 26.1394 29.9607C27.793 31.0582 32.3201 34.0659 33.8603 35.0878C33.8756 35.0977 33.8973 35.0838 33.8886 35.0678L31.4878 28.3115H31.4857C31.1916 27.4809 30.6121 25.8476 30.2461 24.8178C30.1851 24.6465 29.9432 24.6027 29.8191 24.7401C28.9302 25.7101 27.0305 27.7797 26.1983 28.6859C26.098 28.7955 25.9172 28.7955 25.817 28.6859C24.9695 27.7637 23.0785 25.7022 22.1788 24.7202C22.0524 24.5827 21.8106 24.6266 21.7518 24.7959C21.3771 25.8456 20.7867 27.5048 20.486 28.3553L18.1005 35.0678H18.0983Z" fill="#060709"/>
<path d="M13.2382 21.3898L17.1836 24.0111L18.127 21.3579H13.2491C13.2317 21.3579 13.223 21.3798 13.2382 21.3898Z" fill="#060709"/>
</g>
<defs>
<clipPath id="clip0_594_2404">
<rect width="51.9892" height="45.2392" fill="white"/>
</clipPath>
</defs>
</svg>
