<svg width="49" height="49" viewBox="0 0 49 49" fill="none" xmlns="http://www.w3.org/2000/svg">
<path d="M32.1667 27.0556L24.5 34.7222M24.5 34.7222L16.8333 27.0556M24.5 34.7222V14.2778M24.5 47.5C21.4796 47.5 18.4888 46.9051 15.6983 45.7492C12.9078 44.5934 10.3723 42.8992 8.23654 40.7635C6.1008 38.6277 4.40663 36.0922 3.25077 33.3017C2.09491 30.5112 1.5 27.5204 1.5 24.5C1.5 21.4796 2.09491 18.4888 3.25077 15.6983C4.40663 12.9078 6.1008 10.3723 8.23654 8.23654C10.3723 6.1008 12.9078 4.40663 15.6983 3.25077C18.4888 2.09491 21.4796 1.5 24.5 1.5C30.6 1.5 36.4501 3.92321 40.7635 8.23654C45.0768 12.5499 47.5 18.4 47.5 24.5C47.5 30.6 45.0768 36.4501 40.7635 40.7635C36.4501 45.0768 30.6 47.5 24.5 47.5Z" stroke="#F2F7F1" stroke-width="3" stroke-linecap="round"/>
</svg>
