<svg width="50" height="50" viewBox="0 0 50 50" fill="none" xmlns="http://www.w3.org/2000/svg">
<path d="M18.7474 18.6385C18.7474 15.7437 16.7784 15.7437 16.7784 15.7437H8.69238V21.9497H16.2771C17.587 21.9497 18.7474 21.5292 18.7474 18.6385ZM16.7784 26.2393H8.69238V33.6704H16.4145C17.5749 33.6381 19.7217 33.2661 19.7217 30.0559C19.7096 26.2151 16.7784 26.2393 16.7784 26.2393ZM37.507 21.9497C33.2092 21.9497 32.6109 26.2353 32.6109 26.2353H41.7481C41.7481 26.2353 41.8047 21.9497 37.507 21.9497Z" fill="#F2F7F1"/>
<path d="M44.1053 0H5.89876C4.33431 0 2.83394 0.621475 1.72771 1.72771C0.621475 2.83394 0 4.33431 0 5.89876V44.1012C0 45.6657 0.621475 47.1661 1.72771 48.2723C2.83394 49.3785 4.33431 50 5.89876 50H44.1012C45.6657 50 47.1661 49.3785 48.2723 48.2723C49.3785 47.1661 50 45.6657 50 44.1012V5.89876C50 4.33501 49.3791 2.83525 48.2737 1.72914C47.1684 0.62302 45.669 0.0010718 44.1053 0ZM31.4142 12.4363H42.8883V15.8648H31.4142V12.4363ZM25.6125 30.4035C25.6125 38.8938 16.7785 38.6149 16.7785 38.6149H2.30452V10.7989H16.7785C21.1773 10.7989 24.6503 13.2247 24.6503 18.2057C24.6503 23.1867 20.4051 23.498 20.4051 23.498C26.0006 23.498 25.6125 30.4035 25.6125 30.4035ZM47.0769 29.9507H32.6838C32.6838 35.1176 37.5798 34.8023 37.5798 34.8023C42.201 34.8023 42.0272 31.8105 42.0272 31.8105H46.9152C46.9152 39.7509 37.3979 39.2051 37.3979 39.2051C25.9764 39.2051 26.7122 28.572 26.7122 28.572C26.7122 28.572 26.7122 17.8863 37.3979 17.8863C48.6577 17.8782 47.0809 29.9507 47.0809 29.9507H47.0769Z" fill="#F2F7F1"/>
</svg>
