<svg width="213" height="215" viewBox="0 0 213 215" fill="none" xmlns="http://www.w3.org/2000/svg">
<path d="M31.9499 32.75C20.2016 32.75 10.6499 42.3914 10.6499 54.25V161.75C10.6499 173.609 20.2016 183.25 31.9499 183.25H181.05C192.798 183.25 202.35 173.609 202.35 161.75V54.25C202.35 42.3914 192.798 32.75 181.05 32.75H31.9499ZM58.5749 118.75H79.8749C94.5852 118.75 106.5 130.777 106.5 145.625C106.5 148.581 104.104 151 101.175 151H37.2749C34.3462 151 31.9499 148.581 31.9499 145.625C31.9499 130.777 43.8646 118.75 58.5749 118.75ZM50.5874 86.5C50.5874 76.1195 58.941 67.6875 69.2249 67.6875C79.5088 67.6875 87.8624 76.1195 87.8624 86.5C87.8624 96.8805 79.5088 105.312 69.2249 105.312C58.941 105.312 50.5874 96.8805 50.5874 86.5ZM130.462 70.375H167.737C172.164 70.375 175.725 73.9695 175.725 78.4375C175.725 82.9055 172.164 86.5 167.737 86.5H130.462C126.036 86.5 122.475 82.9055 122.475 78.4375C122.475 73.9695 126.036 70.375 130.462 70.375ZM130.462 102.625H167.737C172.164 102.625 175.725 106.22 175.725 110.688C175.725 115.155 172.164 118.75 167.737 118.75H130.462C126.036 118.75 122.475 115.155 122.475 110.688C122.475 106.22 126.036 102.625 130.462 102.625Z" fill="#F2F7F1"/>
</svg>
