<svg width="11" height="11" viewBox="0 0 11 11" fill="none" xmlns="http://www.w3.org/2000/svg">
<path d="M0.807542 8.77818C0.417017 9.16871 0.417017 9.80187 0.807542 10.1924C1.19807 10.5829 1.83123 10.5829 2.22176 10.1924L1.51465 9.48529L0.807542 8.77818ZM10.9999 1.00001C10.9999 0.447725 10.5522 9.31544e-06 9.99993 9.31544e-06H0.99993C0.447645 9.31544e-06 -7.01623e-05 0.447725 -7.01623e-05 1.00001C-7.01623e-05 1.55229 0.447645 2.00001 0.99993 2.00001H8.99993V10C8.99993 10.5523 9.44764 11 9.99993 11C10.5522 11 10.9999 10.5523 10.9999 10V1.00001ZM1.51465 9.48529L2.22176 10.1924L10.707 1.70712L9.99993 1.00001L9.29282 0.292903L0.807542 8.77818L1.51465 9.48529Z" fill="#F2F7F1"/>
</svg>
