<svg width="50" height="51" viewBox="0 0 50 51" fill="none" xmlns="http://www.w3.org/2000/svg">
<path d="M34.1989 2.6582H15.7986C12.2021 2.66095 8.75372 4.09571 6.21062 6.64743C3.66752 9.19914 2.2376 12.6592 2.23486 16.2679V34.7305C2.23706 38.3395 3.66673 41.8001 6.20989 44.3523C8.75305 46.9045 12.2018 48.3395 15.7986 48.3422H34.1989C37.7955 48.3389 41.2439 46.9037 43.787 44.3517C46.33 41.7996 47.7599 38.3393 47.7626 34.7305V16.2679C47.761 12.6589 46.3314 9.19817 43.7881 6.64621C41.2447 4.09426 37.7957 2.65985 34.1989 2.6582ZM43.1848 34.7305C43.1842 37.1216 42.2373 39.4146 40.5523 41.1054C38.8672 42.7962 36.5819 43.7463 34.1989 43.7468H15.7986C14.6187 43.7468 13.4503 43.5136 12.3602 43.0605C11.27 42.6073 10.2796 41.9432 9.44533 41.1059C8.61107 40.2686 7.94937 39.2746 7.49801 38.1807C7.04665 37.0868 6.81448 35.9144 6.81475 34.7305V16.2679C6.81448 15.084 7.04666 13.9117 7.49805 12.818C7.94943 11.7242 8.61117 10.7303 9.44545 9.89322C10.2797 9.05611 11.2702 8.39213 12.3603 7.93922C13.4504 7.48631 14.6188 7.25333 15.7986 7.2536H34.1989C36.5814 7.25415 38.8661 8.20405 40.5508 9.89444C42.2355 11.5848 43.1822 13.8773 43.1827 16.2679L43.1848 34.7305Z" fill="#F2F7F1"/>
<path d="M25 13.6884C18.5058 13.6884 13.2285 18.9857 13.2285 25.4998C13.2285 32.014 18.5079 37.3112 25 37.3112C31.4922 37.3112 36.7716 32.014 36.7716 25.4998C36.7716 18.9857 31.4942 13.6884 25 13.6884ZM25 32.7158C23.0927 32.7161 21.2634 31.9561 19.9145 30.603C18.5656 29.25 17.8076 27.4147 17.8074 25.5009C17.8071 23.5871 18.5645 21.7515 19.913 20.3981C21.2615 19.0446 23.0906 18.2841 24.998 18.2838C26.9053 18.2836 28.7346 19.0435 30.0835 20.3966C31.4324 21.7497 32.1904 23.585 32.1906 25.4988C32.1909 27.4126 31.4335 29.2481 30.085 30.6016C28.7365 31.955 26.9074 32.7156 25 32.7158ZM36.7964 10.9453C37.3541 10.9457 37.8992 11.112 38.3628 11.4232C38.8263 11.7343 39.1875 12.1764 39.4008 12.6935C39.614 13.2106 39.6697 13.7795 39.5608 14.3283C39.4519 14.8772 39.1833 15.3813 38.7889 15.777C38.3945 16.1727 37.8921 16.4422 37.3451 16.5515C36.7982 16.6608 36.2312 16.6049 35.7158 16.3909C35.2005 16.177 34.7599 15.8145 34.4498 15.3494C34.1397 14.8843 33.974 14.3373 33.9735 13.7777C33.9735 12.2162 35.029 10.9453 36.7964 10.9453Z" fill="#F2F7F1"/>
</svg>
