<svg width="50" height="50" viewBox="0 0 50 50" fill="none" xmlns="http://www.w3.org/2000/svg">
<path d="M46.25 0.00120212H3.68753C3.20419 -0.00502601 2.72445 0.0850583 2.2763 0.266198C1.82814 0.447337 1.42055 0.715902 1.07729 1.05623C0.734039 1.39656 0.461997 1.80183 0.277041 2.24841C0.092086 2.69499 -0.00207988 3.17392 3.48435e-05 3.65728V46.3896C0.00411028 46.869 0.102839 47.3429 0.29056 47.784C0.47828 48.2252 0.751294 48.6249 1.09392 48.9602C1.43655 49.2956 1.84205 49.56 2.28714 49.7382C2.73222 49.9164 3.20813 50.005 3.68753 49.9988H46.25C46.7341 50.0112 47.2158 49.9274 47.6672 49.7522C48.1186 49.577 48.5307 49.3138 48.8795 48.9781C49.2284 48.6423 49.5071 48.2406 49.6995 47.7962C49.8918 47.3519 49.994 46.8737 50 46.3896V3.65728C50.0002 3.16916 49.9026 2.68596 49.713 2.23616C49.5234 1.78636 49.2457 1.37908 48.8962 1.03833C48.5467 0.697574 48.1325 0.430255 47.678 0.252132C47.2235 0.0740084 46.738 -0.0113136 46.25 0.00120212ZM14.8125 42.6085H7.40628V18.7503H14.8125V42.6085ZM11.1094 15.5161C10.2596 15.5161 9.42881 15.2641 8.72219 14.792C8.01557 14.3198 7.46483 13.6488 7.13961 12.8637C6.81439 12.0786 6.7293 11.2146 6.8951 10.3812C7.06089 9.5477 7.47013 8.7821 8.07106 8.18121C8.67199 7.58031 9.43761 7.17109 10.2711 7.0053C11.1046 6.83952 11.9686 6.9246 12.7537 7.24981C13.5389 7.57501 14.21 8.12573 14.6821 8.83231C15.1543 9.5389 15.4063 10.3696 15.4063 11.2194C15.4063 12.359 14.9536 13.4518 14.1477 14.2576C13.3419 15.0634 12.249 15.5161 11.1094 15.5161ZM42.5625 42.6085H35.1563V31.0153C35.1563 28.2498 35.1563 24.7656 31.3125 24.7656C27.4688 24.7656 26.8594 27.7811 26.8594 30.8903V42.6866H19.4531V18.7503H26.5625V22.0314H26.6563C27.3707 20.818 28.3998 19.8202 29.6348 19.1436C30.8698 18.467 32.2646 18.1368 33.6719 18.1878C41.1719 18.1878 42.5625 23.1251 42.5625 29.5467V42.6085Z" fill="#F2F7F1"/>
</svg>
